<mxfile host="app.diagrams.net" modified="2022-02-19T17:53:50.246Z" agent="5.0 (Windows NT 10.0; Win64; x64) AppleWebKit/537.36 (KHTML, like Gecko) Chrome/98.0.4758.82 Safari/537.36" etag="Lfq1VWH8o9aAymEFSsPL" version="16.6.1" type="github">
  <diagram id="RtEZbq_EE42DHRf2AX0F" name="Page-1">
    <mxGraphModel dx="1157" dy="643" grid="1" gridSize="10" guides="1" tooltips="1" connect="1" arrows="1" fold="1" page="1" pageScale="1" pageWidth="827" pageHeight="1169" math="0" shadow="0">
      <root>
        <mxCell id="0" />
        <mxCell id="1" parent="0" />
        <mxCell id="gs70F_TzRpDO0qf4TgTC-1" value="CLIENTE" style="rounded=0;whiteSpace=wrap;html=1;" parent="1" vertex="1">
          <mxGeometry x="224" y="450" width="120" height="60" as="geometry" />
        </mxCell>
        <mxCell id="gs70F_TzRpDO0qf4TgTC-2" value="FAZ" style="rhombus;whiteSpace=wrap;html=1;" parent="1" vertex="1">
          <mxGeometry x="398" y="440" width="80" height="80" as="geometry" />
        </mxCell>
        <mxCell id="gs70F_TzRpDO0qf4TgTC-3" value="TRANSAÇÃO" style="rounded=0;whiteSpace=wrap;html=1;" parent="1" vertex="1">
          <mxGeometry x="544" y="450" width="120" height="60" as="geometry" />
        </mxCell>
        <mxCell id="gs70F_TzRpDO0qf4TgTC-4" value="ID" style="ellipse;whiteSpace=wrap;html=1;" parent="1" vertex="1">
          <mxGeometry x="44" y="270" width="70" height="50" as="geometry" />
        </mxCell>
        <mxCell id="rISgOMHyKzgCzV1_aeJC-1" value="NOME" style="ellipse;whiteSpace=wrap;html=1;" vertex="1" parent="1">
          <mxGeometry x="44" y="360" width="70" height="50" as="geometry" />
        </mxCell>
        <mxCell id="rISgOMHyKzgCzV1_aeJC-2" value="E-MAIL" style="ellipse;whiteSpace=wrap;html=1;" vertex="1" parent="1">
          <mxGeometry x="44" y="460" width="70" height="50" as="geometry" />
        </mxCell>
        <mxCell id="rISgOMHyKzgCzV1_aeJC-3" value="DATA CADASTRO" style="ellipse;whiteSpace=wrap;html=1;" vertex="1" parent="1">
          <mxGeometry x="44" y="570" width="80" height="50" as="geometry" />
        </mxCell>
        <mxCell id="rISgOMHyKzgCzV1_aeJC-4" value="TELEFONE" style="ellipse;whiteSpace=wrap;html=1;" vertex="1" parent="1">
          <mxGeometry x="44" y="690" width="70" height="50" as="geometry" />
        </mxCell>
        <mxCell id="rISgOMHyKzgCzV1_aeJC-5" value="ID" style="ellipse;whiteSpace=wrap;html=1;" vertex="1" parent="1">
          <mxGeometry x="714" y="360" width="70" height="50" as="geometry" />
        </mxCell>
        <mxCell id="rISgOMHyKzgCzV1_aeJC-6" value="CLIENTE ID" style="ellipse;whiteSpace=wrap;html=1;" vertex="1" parent="1">
          <mxGeometry x="714" y="455" width="70" height="50" as="geometry" />
        </mxCell>
        <mxCell id="rISgOMHyKzgCzV1_aeJC-7" value="VALOR" style="ellipse;whiteSpace=wrap;html=1;" vertex="1" parent="1">
          <mxGeometry x="714" y="550" width="70" height="50" as="geometry" />
        </mxCell>
        <mxCell id="rISgOMHyKzgCzV1_aeJC-8" value="DATA" style="ellipse;whiteSpace=wrap;html=1;" vertex="1" parent="1">
          <mxGeometry x="714" y="640" width="70" height="50" as="geometry" />
        </mxCell>
        <mxCell id="rISgOMHyKzgCzV1_aeJC-9" value="" style="endArrow=none;html=1;rounded=0;entryX=0;entryY=0.5;entryDx=0;entryDy=0;exitX=1;exitY=0.5;exitDx=0;exitDy=0;" edge="1" parent="1" source="gs70F_TzRpDO0qf4TgTC-4" target="gs70F_TzRpDO0qf4TgTC-1">
          <mxGeometry width="50" height="50" relative="1" as="geometry">
            <mxPoint x="174" y="400" as="sourcePoint" />
            <mxPoint x="224" y="350" as="targetPoint" />
          </mxGeometry>
        </mxCell>
        <mxCell id="rISgOMHyKzgCzV1_aeJC-10" value="" style="endArrow=none;html=1;rounded=0;exitX=1;exitY=0.5;exitDx=0;exitDy=0;" edge="1" parent="1" source="rISgOMHyKzgCzV1_aeJC-3">
          <mxGeometry width="50" height="50" relative="1" as="geometry">
            <mxPoint x="174" y="530" as="sourcePoint" />
            <mxPoint x="224" y="480" as="targetPoint" />
          </mxGeometry>
        </mxCell>
        <mxCell id="rISgOMHyKzgCzV1_aeJC-11" value="" style="endArrow=none;html=1;rounded=0;exitX=1;exitY=0.5;exitDx=0;exitDy=0;" edge="1" parent="1" source="rISgOMHyKzgCzV1_aeJC-4">
          <mxGeometry width="50" height="50" relative="1" as="geometry">
            <mxPoint x="174" y="530" as="sourcePoint" />
            <mxPoint x="224" y="480" as="targetPoint" />
          </mxGeometry>
        </mxCell>
        <mxCell id="rISgOMHyKzgCzV1_aeJC-12" value="" style="endArrow=none;html=1;rounded=0;exitX=1;exitY=0.5;exitDx=0;exitDy=0;entryX=0;entryY=0.5;entryDx=0;entryDy=0;" edge="1" parent="1" source="gs70F_TzRpDO0qf4TgTC-1" target="gs70F_TzRpDO0qf4TgTC-2">
          <mxGeometry width="50" height="50" relative="1" as="geometry">
            <mxPoint x="374" y="580" as="sourcePoint" />
            <mxPoint x="424" y="530" as="targetPoint" />
          </mxGeometry>
        </mxCell>
        <mxCell id="rISgOMHyKzgCzV1_aeJC-13" value="" style="endArrow=none;html=1;rounded=0;exitX=1;exitY=0.5;exitDx=0;exitDy=0;" edge="1" parent="1" source="rISgOMHyKzgCzV1_aeJC-1">
          <mxGeometry width="50" height="50" relative="1" as="geometry">
            <mxPoint x="124" y="450" as="sourcePoint" />
            <mxPoint x="224" y="480" as="targetPoint" />
          </mxGeometry>
        </mxCell>
        <mxCell id="rISgOMHyKzgCzV1_aeJC-14" value="" style="endArrow=none;html=1;rounded=0;exitX=1;exitY=0.5;exitDx=0;exitDy=0;" edge="1" parent="1" source="rISgOMHyKzgCzV1_aeJC-2">
          <mxGeometry width="50" height="50" relative="1" as="geometry">
            <mxPoint x="124" y="520" as="sourcePoint" />
            <mxPoint x="224" y="480" as="targetPoint" />
          </mxGeometry>
        </mxCell>
        <mxCell id="rISgOMHyKzgCzV1_aeJC-15" value="" style="endArrow=none;html=1;rounded=0;entryX=0;entryY=0.5;entryDx=0;entryDy=0;" edge="1" parent="1" source="gs70F_TzRpDO0qf4TgTC-2" target="gs70F_TzRpDO0qf4TgTC-3">
          <mxGeometry width="50" height="50" relative="1" as="geometry">
            <mxPoint x="478" y="570" as="sourcePoint" />
            <mxPoint x="528" y="520" as="targetPoint" />
          </mxGeometry>
        </mxCell>
        <mxCell id="rISgOMHyKzgCzV1_aeJC-16" value="" style="endArrow=none;html=1;rounded=0;entryX=0;entryY=0.5;entryDx=0;entryDy=0;exitX=1;exitY=0.5;exitDx=0;exitDy=0;" edge="1" parent="1" source="gs70F_TzRpDO0qf4TgTC-3" target="rISgOMHyKzgCzV1_aeJC-7">
          <mxGeometry width="50" height="50" relative="1" as="geometry">
            <mxPoint x="624" y="600" as="sourcePoint" />
            <mxPoint x="674" y="550" as="targetPoint" />
          </mxGeometry>
        </mxCell>
        <mxCell id="rISgOMHyKzgCzV1_aeJC-17" value="" style="endArrow=none;html=1;rounded=0;entryX=0;entryY=0.5;entryDx=0;entryDy=0;exitX=1;exitY=0.5;exitDx=0;exitDy=0;" edge="1" parent="1" source="gs70F_TzRpDO0qf4TgTC-3" target="rISgOMHyKzgCzV1_aeJC-8">
          <mxGeometry width="50" height="50" relative="1" as="geometry">
            <mxPoint x="614" y="610" as="sourcePoint" />
            <mxPoint x="664" y="560" as="targetPoint" />
          </mxGeometry>
        </mxCell>
        <mxCell id="rISgOMHyKzgCzV1_aeJC-18" value="" style="endArrow=none;html=1;rounded=0;entryX=0;entryY=0.5;entryDx=0;entryDy=0;" edge="1" parent="1" target="rISgOMHyKzgCzV1_aeJC-5">
          <mxGeometry width="50" height="50" relative="1" as="geometry">
            <mxPoint x="664" y="480" as="sourcePoint" />
            <mxPoint x="694" y="380" as="targetPoint" />
          </mxGeometry>
        </mxCell>
        <mxCell id="rISgOMHyKzgCzV1_aeJC-19" value="" style="endArrow=none;html=1;rounded=0;entryX=0;entryY=0.5;entryDx=0;entryDy=0;exitX=1;exitY=0.5;exitDx=0;exitDy=0;" edge="1" parent="1" source="gs70F_TzRpDO0qf4TgTC-3" target="rISgOMHyKzgCzV1_aeJC-6">
          <mxGeometry width="50" height="50" relative="1" as="geometry">
            <mxPoint x="594" y="610" as="sourcePoint" />
            <mxPoint x="644" y="560" as="targetPoint" />
          </mxGeometry>
        </mxCell>
        <mxCell id="rISgOMHyKzgCzV1_aeJC-20" value="1" style="text;html=1;align=center;verticalAlign=middle;resizable=0;points=[];autosize=1;strokeColor=none;fillColor=none;" vertex="1" parent="1">
          <mxGeometry x="344" y="460" width="20" height="20" as="geometry" />
        </mxCell>
        <mxCell id="rISgOMHyKzgCzV1_aeJC-21" value="N" style="text;html=1;align=center;verticalAlign=middle;resizable=0;points=[];autosize=1;strokeColor=none;fillColor=none;" vertex="1" parent="1">
          <mxGeometry x="524" y="460" width="20" height="20" as="geometry" />
        </mxCell>
        <mxCell id="rISgOMHyKzgCzV1_aeJC-22" value="ID" style="ellipse;whiteSpace=wrap;html=1;" vertex="1" parent="1">
          <mxGeometry x="44" y="270" width="70" height="50" as="geometry" />
        </mxCell>
        <mxCell id="rISgOMHyKzgCzV1_aeJC-23" value="" style="endArrow=none;html=1;rounded=0;entryX=0;entryY=0.5;entryDx=0;entryDy=0;exitX=1;exitY=0.5;exitDx=0;exitDy=0;" edge="1" source="rISgOMHyKzgCzV1_aeJC-22" parent="1">
          <mxGeometry width="50" height="50" relative="1" as="geometry">
            <mxPoint x="174" y="400" as="sourcePoint" />
            <mxPoint x="224" y="480" as="targetPoint" />
          </mxGeometry>
        </mxCell>
        <mxCell id="rISgOMHyKzgCzV1_aeJC-24" value="ID" style="ellipse;whiteSpace=wrap;html=1;" vertex="1" parent="1">
          <mxGeometry x="44" y="270" width="70" height="50" as="geometry" />
        </mxCell>
        <mxCell id="rISgOMHyKzgCzV1_aeJC-25" value="" style="endArrow=none;html=1;rounded=0;entryX=0;entryY=0.5;entryDx=0;entryDy=0;exitX=1;exitY=0.5;exitDx=0;exitDy=0;" edge="1" source="rISgOMHyKzgCzV1_aeJC-24" parent="1">
          <mxGeometry width="50" height="50" relative="1" as="geometry">
            <mxPoint x="174" y="400" as="sourcePoint" />
            <mxPoint x="224" y="480" as="targetPoint" />
          </mxGeometry>
        </mxCell>
        <mxCell id="rISgOMHyKzgCzV1_aeJC-26" value="E-MAIL" style="ellipse;whiteSpace=wrap;html=1;" vertex="1" parent="1">
          <mxGeometry x="44" y="460" width="70" height="50" as="geometry" />
        </mxCell>
        <mxCell id="rISgOMHyKzgCzV1_aeJC-27" value="NOME" style="ellipse;whiteSpace=wrap;html=1;" vertex="1" parent="1">
          <mxGeometry x="44" y="360" width="70" height="50" as="geometry" />
        </mxCell>
        <mxCell id="rISgOMHyKzgCzV1_aeJC-28" value="" style="endArrow=none;html=1;rounded=0;exitX=1;exitY=0.5;exitDx=0;exitDy=0;" edge="1" source="rISgOMHyKzgCzV1_aeJC-27" parent="1">
          <mxGeometry width="50" height="50" relative="1" as="geometry">
            <mxPoint x="124" y="450" as="sourcePoint" />
            <mxPoint x="224" y="480" as="targetPoint" />
          </mxGeometry>
        </mxCell>
        <mxCell id="rISgOMHyKzgCzV1_aeJC-29" value="ID" style="ellipse;whiteSpace=wrap;html=1;" vertex="1" parent="1">
          <mxGeometry x="44" y="270" width="70" height="50" as="geometry" />
        </mxCell>
        <mxCell id="rISgOMHyKzgCzV1_aeJC-30" value="" style="endArrow=none;html=1;rounded=0;entryX=0;entryY=0.5;entryDx=0;entryDy=0;exitX=1;exitY=0.5;exitDx=0;exitDy=0;" edge="1" source="rISgOMHyKzgCzV1_aeJC-29" parent="1">
          <mxGeometry width="50" height="50" relative="1" as="geometry">
            <mxPoint x="174" y="400" as="sourcePoint" />
            <mxPoint x="224" y="480" as="targetPoint" />
          </mxGeometry>
        </mxCell>
        <mxCell id="rISgOMHyKzgCzV1_aeJC-31" value="E-MAIL" style="ellipse;whiteSpace=wrap;html=1;" vertex="1" parent="1">
          <mxGeometry x="44" y="460" width="70" height="50" as="geometry" />
        </mxCell>
        <mxCell id="rISgOMHyKzgCzV1_aeJC-32" value="NOME" style="ellipse;whiteSpace=wrap;html=1;" vertex="1" parent="1">
          <mxGeometry x="44" y="360" width="70" height="50" as="geometry" />
        </mxCell>
        <mxCell id="rISgOMHyKzgCzV1_aeJC-33" value="" style="endArrow=none;html=1;rounded=0;exitX=1;exitY=0.5;exitDx=0;exitDy=0;" edge="1" source="rISgOMHyKzgCzV1_aeJC-32" parent="1">
          <mxGeometry width="50" height="50" relative="1" as="geometry">
            <mxPoint x="124" y="450" as="sourcePoint" />
            <mxPoint x="224" y="480" as="targetPoint" />
          </mxGeometry>
        </mxCell>
        <mxCell id="rISgOMHyKzgCzV1_aeJC-34" value="" style="endArrow=none;html=1;rounded=0;exitX=1;exitY=0.5;exitDx=0;exitDy=0;" edge="1" parent="1">
          <mxGeometry width="50" height="50" relative="1" as="geometry">
            <mxPoint x="114" y="485" as="sourcePoint" />
            <mxPoint x="224" y="480" as="targetPoint" />
          </mxGeometry>
        </mxCell>
        <mxCell id="rISgOMHyKzgCzV1_aeJC-35" value="" style="endArrow=none;html=1;rounded=0;exitX=1;exitY=0.5;exitDx=0;exitDy=0;" edge="1" source="rISgOMHyKzgCzV1_aeJC-37" parent="1">
          <mxGeometry width="50" height="50" relative="1" as="geometry">
            <mxPoint x="174" y="530" as="sourcePoint" />
            <mxPoint x="224" y="480" as="targetPoint" />
          </mxGeometry>
        </mxCell>
        <mxCell id="rISgOMHyKzgCzV1_aeJC-36" value="" style="endArrow=none;html=1;rounded=0;exitX=1;exitY=0.5;exitDx=0;exitDy=0;" edge="1" source="rISgOMHyKzgCzV1_aeJC-38" parent="1">
          <mxGeometry width="50" height="50" relative="1" as="geometry">
            <mxPoint x="174" y="530" as="sourcePoint" />
            <mxPoint x="224" y="480" as="targetPoint" />
          </mxGeometry>
        </mxCell>
        <mxCell id="rISgOMHyKzgCzV1_aeJC-37" value="DATA CADASTRO" style="ellipse;whiteSpace=wrap;html=1;" vertex="1" parent="1">
          <mxGeometry x="44" y="570" width="80" height="50" as="geometry" />
        </mxCell>
        <mxCell id="rISgOMHyKzgCzV1_aeJC-38" value="TELEFONE" style="ellipse;whiteSpace=wrap;html=1;" vertex="1" parent="1">
          <mxGeometry x="44" y="690" width="70" height="50" as="geometry" />
        </mxCell>
        <mxCell id="rISgOMHyKzgCzV1_aeJC-39" value="CLIENTE" style="rounded=0;whiteSpace=wrap;html=1;" vertex="1" parent="1">
          <mxGeometry x="224" y="450" width="120" height="60" as="geometry" />
        </mxCell>
        <mxCell id="rISgOMHyKzgCzV1_aeJC-40" value="1" style="text;html=1;align=center;verticalAlign=middle;resizable=0;points=[];autosize=1;strokeColor=none;fillColor=none;" vertex="1" parent="1">
          <mxGeometry x="344" y="460" width="20" height="20" as="geometry" />
        </mxCell>
        <mxCell id="rISgOMHyKzgCzV1_aeJC-41" value="" style="endArrow=none;html=1;rounded=0;exitX=1;exitY=0.5;exitDx=0;exitDy=0;entryX=0;entryY=0.5;entryDx=0;entryDy=0;" edge="1" source="rISgOMHyKzgCzV1_aeJC-39" target="rISgOMHyKzgCzV1_aeJC-42" parent="1">
          <mxGeometry width="50" height="50" relative="1" as="geometry">
            <mxPoint x="374" y="580" as="sourcePoint" />
            <mxPoint x="424" y="530" as="targetPoint" />
          </mxGeometry>
        </mxCell>
        <mxCell id="rISgOMHyKzgCzV1_aeJC-42" value="FAZ" style="rhombus;whiteSpace=wrap;html=1;" vertex="1" parent="1">
          <mxGeometry x="398" y="440" width="80" height="80" as="geometry" />
        </mxCell>
        <mxCell id="rISgOMHyKzgCzV1_aeJC-43" value="ID" style="ellipse;whiteSpace=wrap;html=1;" vertex="1" parent="1">
          <mxGeometry x="44" y="270" width="70" height="50" as="geometry" />
        </mxCell>
        <mxCell id="rISgOMHyKzgCzV1_aeJC-44" value="" style="endArrow=none;html=1;rounded=0;entryX=0;entryY=0.5;entryDx=0;entryDy=0;exitX=1;exitY=0.5;exitDx=0;exitDy=0;" edge="1" source="rISgOMHyKzgCzV1_aeJC-43" parent="1">
          <mxGeometry width="50" height="50" relative="1" as="geometry">
            <mxPoint x="174" y="400" as="sourcePoint" />
            <mxPoint x="224" y="480" as="targetPoint" />
          </mxGeometry>
        </mxCell>
        <mxCell id="rISgOMHyKzgCzV1_aeJC-45" value="E-MAIL" style="ellipse;whiteSpace=wrap;html=1;" vertex="1" parent="1">
          <mxGeometry x="44" y="460" width="70" height="50" as="geometry" />
        </mxCell>
        <mxCell id="rISgOMHyKzgCzV1_aeJC-46" value="NOME" style="ellipse;whiteSpace=wrap;html=1;" vertex="1" parent="1">
          <mxGeometry x="44" y="360" width="70" height="50" as="geometry" />
        </mxCell>
        <mxCell id="rISgOMHyKzgCzV1_aeJC-47" value="" style="endArrow=none;html=1;rounded=0;exitX=1;exitY=0.5;exitDx=0;exitDy=0;" edge="1" source="rISgOMHyKzgCzV1_aeJC-46" parent="1">
          <mxGeometry width="50" height="50" relative="1" as="geometry">
            <mxPoint x="124" y="450" as="sourcePoint" />
            <mxPoint x="224" y="480" as="targetPoint" />
          </mxGeometry>
        </mxCell>
        <mxCell id="rISgOMHyKzgCzV1_aeJC-48" value="" style="endArrow=none;html=1;rounded=0;exitX=1;exitY=0.5;exitDx=0;exitDy=0;" edge="1" parent="1">
          <mxGeometry width="50" height="50" relative="1" as="geometry">
            <mxPoint x="114" y="485" as="sourcePoint" />
            <mxPoint x="224" y="480" as="targetPoint" />
          </mxGeometry>
        </mxCell>
        <mxCell id="rISgOMHyKzgCzV1_aeJC-49" value="" style="endArrow=none;html=1;rounded=0;exitX=1;exitY=0.5;exitDx=0;exitDy=0;" edge="1" source="rISgOMHyKzgCzV1_aeJC-51" parent="1">
          <mxGeometry width="50" height="50" relative="1" as="geometry">
            <mxPoint x="174" y="530" as="sourcePoint" />
            <mxPoint x="224" y="480" as="targetPoint" />
          </mxGeometry>
        </mxCell>
        <mxCell id="rISgOMHyKzgCzV1_aeJC-50" value="" style="endArrow=none;html=1;rounded=0;exitX=1;exitY=0.5;exitDx=0;exitDy=0;" edge="1" source="rISgOMHyKzgCzV1_aeJC-52" parent="1">
          <mxGeometry width="50" height="50" relative="1" as="geometry">
            <mxPoint x="174" y="530" as="sourcePoint" />
            <mxPoint x="224" y="480" as="targetPoint" />
          </mxGeometry>
        </mxCell>
        <mxCell id="rISgOMHyKzgCzV1_aeJC-51" value="DATA CADASTRO" style="ellipse;whiteSpace=wrap;html=1;" vertex="1" parent="1">
          <mxGeometry x="44" y="570" width="80" height="50" as="geometry" />
        </mxCell>
        <mxCell id="rISgOMHyKzgCzV1_aeJC-52" value="TELEFONE" style="ellipse;whiteSpace=wrap;html=1;" vertex="1" parent="1">
          <mxGeometry x="44" y="690" width="70" height="50" as="geometry" />
        </mxCell>
        <mxCell id="rISgOMHyKzgCzV1_aeJC-53" value="CLIENTE" style="rounded=0;whiteSpace=wrap;html=1;" vertex="1" parent="1">
          <mxGeometry x="224" y="450" width="120" height="60" as="geometry" />
        </mxCell>
        <mxCell id="rISgOMHyKzgCzV1_aeJC-54" value="1" style="text;html=1;align=center;verticalAlign=middle;resizable=0;points=[];autosize=1;strokeColor=none;fillColor=none;" vertex="1" parent="1">
          <mxGeometry x="344" y="460" width="20" height="20" as="geometry" />
        </mxCell>
        <mxCell id="rISgOMHyKzgCzV1_aeJC-55" value="" style="endArrow=none;html=1;rounded=0;exitX=1;exitY=0.5;exitDx=0;exitDy=0;entryX=0;entryY=0.5;entryDx=0;entryDy=0;" edge="1" source="rISgOMHyKzgCzV1_aeJC-53" target="rISgOMHyKzgCzV1_aeJC-56" parent="1">
          <mxGeometry width="50" height="50" relative="1" as="geometry">
            <mxPoint x="374" y="580" as="sourcePoint" />
            <mxPoint x="424" y="530" as="targetPoint" />
          </mxGeometry>
        </mxCell>
        <mxCell id="rISgOMHyKzgCzV1_aeJC-56" value="FAZ" style="rhombus;whiteSpace=wrap;html=1;" vertex="1" parent="1">
          <mxGeometry x="398" y="440" width="80" height="80" as="geometry" />
        </mxCell>
        <mxCell id="rISgOMHyKzgCzV1_aeJC-57" value="ID" style="ellipse;whiteSpace=wrap;html=1;" vertex="1" parent="1">
          <mxGeometry x="44" y="270" width="70" height="50" as="geometry" />
        </mxCell>
        <mxCell id="rISgOMHyKzgCzV1_aeJC-58" value="" style="endArrow=none;html=1;rounded=0;entryX=0;entryY=0.5;entryDx=0;entryDy=0;exitX=1;exitY=0.5;exitDx=0;exitDy=0;" edge="1" source="rISgOMHyKzgCzV1_aeJC-57" parent="1">
          <mxGeometry width="50" height="50" relative="1" as="geometry">
            <mxPoint x="174" y="400" as="sourcePoint" />
            <mxPoint x="224" y="480" as="targetPoint" />
          </mxGeometry>
        </mxCell>
        <mxCell id="rISgOMHyKzgCzV1_aeJC-59" value="E-MAIL" style="ellipse;whiteSpace=wrap;html=1;" vertex="1" parent="1">
          <mxGeometry x="44" y="460" width="70" height="50" as="geometry" />
        </mxCell>
        <mxCell id="rISgOMHyKzgCzV1_aeJC-60" value="NOME" style="ellipse;whiteSpace=wrap;html=1;" vertex="1" parent="1">
          <mxGeometry x="44" y="360" width="70" height="50" as="geometry" />
        </mxCell>
        <mxCell id="rISgOMHyKzgCzV1_aeJC-61" value="" style="endArrow=none;html=1;rounded=0;exitX=1;exitY=0.5;exitDx=0;exitDy=0;" edge="1" source="rISgOMHyKzgCzV1_aeJC-60" parent="1">
          <mxGeometry width="50" height="50" relative="1" as="geometry">
            <mxPoint x="124" y="450" as="sourcePoint" />
            <mxPoint x="224" y="480" as="targetPoint" />
          </mxGeometry>
        </mxCell>
        <mxCell id="rISgOMHyKzgCzV1_aeJC-62" value="" style="endArrow=none;html=1;rounded=0;exitX=1;exitY=0.5;exitDx=0;exitDy=0;" edge="1" parent="1">
          <mxGeometry width="50" height="50" relative="1" as="geometry">
            <mxPoint x="114" y="485" as="sourcePoint" />
            <mxPoint x="224" y="480" as="targetPoint" />
          </mxGeometry>
        </mxCell>
        <mxCell id="rISgOMHyKzgCzV1_aeJC-63" value="" style="endArrow=none;html=1;rounded=0;exitX=1;exitY=0.5;exitDx=0;exitDy=0;" edge="1" source="rISgOMHyKzgCzV1_aeJC-65" parent="1">
          <mxGeometry width="50" height="50" relative="1" as="geometry">
            <mxPoint x="174" y="530" as="sourcePoint" />
            <mxPoint x="224" y="480" as="targetPoint" />
          </mxGeometry>
        </mxCell>
        <mxCell id="rISgOMHyKzgCzV1_aeJC-64" value="" style="endArrow=none;html=1;rounded=0;exitX=1;exitY=0.5;exitDx=0;exitDy=0;" edge="1" source="rISgOMHyKzgCzV1_aeJC-66" parent="1">
          <mxGeometry width="50" height="50" relative="1" as="geometry">
            <mxPoint x="174" y="530" as="sourcePoint" />
            <mxPoint x="224" y="480" as="targetPoint" />
          </mxGeometry>
        </mxCell>
        <mxCell id="rISgOMHyKzgCzV1_aeJC-65" value="DATA CADASTRO" style="ellipse;whiteSpace=wrap;html=1;" vertex="1" parent="1">
          <mxGeometry x="44" y="570" width="80" height="50" as="geometry" />
        </mxCell>
        <mxCell id="rISgOMHyKzgCzV1_aeJC-66" value="TELEFONE" style="ellipse;whiteSpace=wrap;html=1;" vertex="1" parent="1">
          <mxGeometry x="44" y="690" width="70" height="50" as="geometry" />
        </mxCell>
        <mxCell id="rISgOMHyKzgCzV1_aeJC-67" value="CLIENTE" style="rounded=0;whiteSpace=wrap;html=1;" vertex="1" parent="1">
          <mxGeometry x="224" y="450" width="120" height="60" as="geometry" />
        </mxCell>
        <mxCell id="rISgOMHyKzgCzV1_aeJC-68" value="1" style="text;html=1;align=center;verticalAlign=middle;resizable=0;points=[];autosize=1;strokeColor=none;fillColor=none;" vertex="1" parent="1">
          <mxGeometry x="344" y="460" width="20" height="20" as="geometry" />
        </mxCell>
        <mxCell id="rISgOMHyKzgCzV1_aeJC-69" value="" style="endArrow=none;html=1;rounded=0;exitX=1;exitY=0.5;exitDx=0;exitDy=0;entryX=0;entryY=0.5;entryDx=0;entryDy=0;" edge="1" source="rISgOMHyKzgCzV1_aeJC-67" target="rISgOMHyKzgCzV1_aeJC-70" parent="1">
          <mxGeometry width="50" height="50" relative="1" as="geometry">
            <mxPoint x="374" y="580" as="sourcePoint" />
            <mxPoint x="424" y="530" as="targetPoint" />
          </mxGeometry>
        </mxCell>
        <mxCell id="rISgOMHyKzgCzV1_aeJC-70" value="FAZ" style="rhombus;whiteSpace=wrap;html=1;" vertex="1" parent="1">
          <mxGeometry x="398" y="440" width="80" height="80" as="geometry" />
        </mxCell>
        <mxCell id="rISgOMHyKzgCzV1_aeJC-71" value="N" style="text;html=1;align=center;verticalAlign=middle;resizable=0;points=[];autosize=1;strokeColor=none;fillColor=none;" vertex="1" parent="1">
          <mxGeometry x="524" y="460" width="20" height="20" as="geometry" />
        </mxCell>
        <mxCell id="rISgOMHyKzgCzV1_aeJC-72" value="" style="endArrow=none;html=1;rounded=0;entryX=0;entryY=0.5;entryDx=0;entryDy=0;" edge="1" parent="1">
          <mxGeometry width="50" height="50" relative="1" as="geometry">
            <mxPoint x="478" y="480" as="sourcePoint" />
            <mxPoint x="544" y="480" as="targetPoint" />
          </mxGeometry>
        </mxCell>
        <mxCell id="rISgOMHyKzgCzV1_aeJC-73" value="ID" style="ellipse;whiteSpace=wrap;html=1;" vertex="1" parent="1">
          <mxGeometry x="44" y="270" width="70" height="50" as="geometry" />
        </mxCell>
        <mxCell id="rISgOMHyKzgCzV1_aeJC-74" value="" style="endArrow=none;html=1;rounded=0;entryX=0;entryY=0.5;entryDx=0;entryDy=0;exitX=1;exitY=0.5;exitDx=0;exitDy=0;" edge="1" source="rISgOMHyKzgCzV1_aeJC-73" parent="1">
          <mxGeometry width="50" height="50" relative="1" as="geometry">
            <mxPoint x="174" y="400" as="sourcePoint" />
            <mxPoint x="224" y="480" as="targetPoint" />
          </mxGeometry>
        </mxCell>
        <mxCell id="rISgOMHyKzgCzV1_aeJC-75" value="E-MAIL" style="ellipse;whiteSpace=wrap;html=1;" vertex="1" parent="1">
          <mxGeometry x="44" y="460" width="70" height="50" as="geometry" />
        </mxCell>
        <mxCell id="rISgOMHyKzgCzV1_aeJC-76" value="NOME" style="ellipse;whiteSpace=wrap;html=1;" vertex="1" parent="1">
          <mxGeometry x="44" y="360" width="70" height="50" as="geometry" />
        </mxCell>
        <mxCell id="rISgOMHyKzgCzV1_aeJC-77" value="" style="endArrow=none;html=1;rounded=0;exitX=1;exitY=0.5;exitDx=0;exitDy=0;" edge="1" source="rISgOMHyKzgCzV1_aeJC-76" parent="1">
          <mxGeometry width="50" height="50" relative="1" as="geometry">
            <mxPoint x="124" y="450" as="sourcePoint" />
            <mxPoint x="224" y="480" as="targetPoint" />
          </mxGeometry>
        </mxCell>
        <mxCell id="rISgOMHyKzgCzV1_aeJC-78" value="" style="endArrow=none;html=1;rounded=0;exitX=1;exitY=0.5;exitDx=0;exitDy=0;" edge="1" parent="1">
          <mxGeometry width="50" height="50" relative="1" as="geometry">
            <mxPoint x="114" y="485" as="sourcePoint" />
            <mxPoint x="224" y="480" as="targetPoint" />
          </mxGeometry>
        </mxCell>
        <mxCell id="rISgOMHyKzgCzV1_aeJC-79" value="" style="endArrow=none;html=1;rounded=0;exitX=1;exitY=0.5;exitDx=0;exitDy=0;" edge="1" source="rISgOMHyKzgCzV1_aeJC-81" parent="1">
          <mxGeometry width="50" height="50" relative="1" as="geometry">
            <mxPoint x="174" y="530" as="sourcePoint" />
            <mxPoint x="224" y="480" as="targetPoint" />
          </mxGeometry>
        </mxCell>
        <mxCell id="rISgOMHyKzgCzV1_aeJC-80" value="" style="endArrow=none;html=1;rounded=0;exitX=1;exitY=0.5;exitDx=0;exitDy=0;" edge="1" source="rISgOMHyKzgCzV1_aeJC-82" parent="1">
          <mxGeometry width="50" height="50" relative="1" as="geometry">
            <mxPoint x="174" y="530" as="sourcePoint" />
            <mxPoint x="224" y="480" as="targetPoint" />
          </mxGeometry>
        </mxCell>
        <mxCell id="rISgOMHyKzgCzV1_aeJC-81" value="DATA CADASTRO" style="ellipse;whiteSpace=wrap;html=1;" vertex="1" parent="1">
          <mxGeometry x="44" y="570" width="80" height="50" as="geometry" />
        </mxCell>
        <mxCell id="rISgOMHyKzgCzV1_aeJC-82" value="TELEFONE" style="ellipse;whiteSpace=wrap;html=1;" vertex="1" parent="1">
          <mxGeometry x="44" y="690" width="70" height="50" as="geometry" />
        </mxCell>
        <mxCell id="rISgOMHyKzgCzV1_aeJC-83" value="CLIENTE" style="rounded=0;whiteSpace=wrap;html=1;" vertex="1" parent="1">
          <mxGeometry x="224" y="450" width="120" height="60" as="geometry" />
        </mxCell>
        <mxCell id="rISgOMHyKzgCzV1_aeJC-84" value="1" style="text;html=1;align=center;verticalAlign=middle;resizable=0;points=[];autosize=1;strokeColor=none;fillColor=none;" vertex="1" parent="1">
          <mxGeometry x="344" y="460" width="20" height="20" as="geometry" />
        </mxCell>
        <mxCell id="rISgOMHyKzgCzV1_aeJC-85" value="" style="endArrow=none;html=1;rounded=0;exitX=1;exitY=0.5;exitDx=0;exitDy=0;entryX=0;entryY=0.5;entryDx=0;entryDy=0;" edge="1" source="rISgOMHyKzgCzV1_aeJC-83" target="rISgOMHyKzgCzV1_aeJC-86" parent="1">
          <mxGeometry width="50" height="50" relative="1" as="geometry">
            <mxPoint x="374" y="580" as="sourcePoint" />
            <mxPoint x="424" y="530" as="targetPoint" />
          </mxGeometry>
        </mxCell>
        <mxCell id="rISgOMHyKzgCzV1_aeJC-86" value="FAZ" style="rhombus;whiteSpace=wrap;html=1;" vertex="1" parent="1">
          <mxGeometry x="398" y="440" width="80" height="80" as="geometry" />
        </mxCell>
        <mxCell id="rISgOMHyKzgCzV1_aeJC-87" value="N" style="text;html=1;align=center;verticalAlign=middle;resizable=0;points=[];autosize=1;strokeColor=none;fillColor=none;" vertex="1" parent="1">
          <mxGeometry x="524" y="460" width="20" height="20" as="geometry" />
        </mxCell>
        <mxCell id="rISgOMHyKzgCzV1_aeJC-88" value="" style="endArrow=none;html=1;rounded=0;entryX=0;entryY=0.5;entryDx=0;entryDy=0;" edge="1" parent="1">
          <mxGeometry width="50" height="50" relative="1" as="geometry">
            <mxPoint x="478" y="480" as="sourcePoint" />
            <mxPoint x="544" y="480" as="targetPoint" />
          </mxGeometry>
        </mxCell>
        <mxCell id="rISgOMHyKzgCzV1_aeJC-89" value="TRANSAÇÃO" style="rounded=0;whiteSpace=wrap;html=1;" vertex="1" parent="1">
          <mxGeometry x="544" y="450" width="120" height="60" as="geometry" />
        </mxCell>
        <mxCell id="rISgOMHyKzgCzV1_aeJC-90" value="ID" style="ellipse;whiteSpace=wrap;html=1;" vertex="1" parent="1">
          <mxGeometry x="44" y="270" width="70" height="50" as="geometry" />
        </mxCell>
        <mxCell id="rISgOMHyKzgCzV1_aeJC-91" value="" style="endArrow=none;html=1;rounded=0;entryX=0;entryY=0.5;entryDx=0;entryDy=0;exitX=1;exitY=0.5;exitDx=0;exitDy=0;" edge="1" source="rISgOMHyKzgCzV1_aeJC-90" parent="1">
          <mxGeometry width="50" height="50" relative="1" as="geometry">
            <mxPoint x="174" y="400" as="sourcePoint" />
            <mxPoint x="224" y="480" as="targetPoint" />
          </mxGeometry>
        </mxCell>
        <mxCell id="rISgOMHyKzgCzV1_aeJC-92" value="E-MAIL" style="ellipse;whiteSpace=wrap;html=1;" vertex="1" parent="1">
          <mxGeometry x="44" y="460" width="70" height="50" as="geometry" />
        </mxCell>
        <mxCell id="rISgOMHyKzgCzV1_aeJC-93" value="NOME" style="ellipse;whiteSpace=wrap;html=1;" vertex="1" parent="1">
          <mxGeometry x="44" y="360" width="70" height="50" as="geometry" />
        </mxCell>
        <mxCell id="rISgOMHyKzgCzV1_aeJC-94" value="" style="endArrow=none;html=1;rounded=0;exitX=1;exitY=0.5;exitDx=0;exitDy=0;" edge="1" source="rISgOMHyKzgCzV1_aeJC-93" parent="1">
          <mxGeometry width="50" height="50" relative="1" as="geometry">
            <mxPoint x="124" y="450" as="sourcePoint" />
            <mxPoint x="224" y="480" as="targetPoint" />
          </mxGeometry>
        </mxCell>
        <mxCell id="rISgOMHyKzgCzV1_aeJC-95" value="" style="endArrow=none;html=1;rounded=0;exitX=1;exitY=0.5;exitDx=0;exitDy=0;" edge="1" parent="1">
          <mxGeometry width="50" height="50" relative="1" as="geometry">
            <mxPoint x="114" y="485" as="sourcePoint" />
            <mxPoint x="224" y="480" as="targetPoint" />
          </mxGeometry>
        </mxCell>
        <mxCell id="rISgOMHyKzgCzV1_aeJC-96" value="" style="endArrow=none;html=1;rounded=0;exitX=1;exitY=0.5;exitDx=0;exitDy=0;" edge="1" source="rISgOMHyKzgCzV1_aeJC-98" parent="1">
          <mxGeometry width="50" height="50" relative="1" as="geometry">
            <mxPoint x="174" y="530" as="sourcePoint" />
            <mxPoint x="224" y="480" as="targetPoint" />
          </mxGeometry>
        </mxCell>
        <mxCell id="rISgOMHyKzgCzV1_aeJC-97" value="" style="endArrow=none;html=1;rounded=0;exitX=1;exitY=0.5;exitDx=0;exitDy=0;" edge="1" source="rISgOMHyKzgCzV1_aeJC-99" parent="1">
          <mxGeometry width="50" height="50" relative="1" as="geometry">
            <mxPoint x="174" y="530" as="sourcePoint" />
            <mxPoint x="224" y="480" as="targetPoint" />
          </mxGeometry>
        </mxCell>
        <mxCell id="rISgOMHyKzgCzV1_aeJC-98" value="DATA CADASTRO" style="ellipse;whiteSpace=wrap;html=1;" vertex="1" parent="1">
          <mxGeometry x="44" y="570" width="80" height="50" as="geometry" />
        </mxCell>
        <mxCell id="rISgOMHyKzgCzV1_aeJC-99" value="TELEFONE" style="ellipse;whiteSpace=wrap;html=1;" vertex="1" parent="1">
          <mxGeometry x="44" y="690" width="70" height="50" as="geometry" />
        </mxCell>
        <mxCell id="rISgOMHyKzgCzV1_aeJC-100" value="CLIENTE" style="rounded=0;whiteSpace=wrap;html=1;" vertex="1" parent="1">
          <mxGeometry x="224" y="450" width="120" height="60" as="geometry" />
        </mxCell>
        <mxCell id="rISgOMHyKzgCzV1_aeJC-101" value="1" style="text;html=1;align=center;verticalAlign=middle;resizable=0;points=[];autosize=1;strokeColor=none;fillColor=none;" vertex="1" parent="1">
          <mxGeometry x="344" y="460" width="20" height="20" as="geometry" />
        </mxCell>
        <mxCell id="rISgOMHyKzgCzV1_aeJC-102" value="" style="endArrow=none;html=1;rounded=0;exitX=1;exitY=0.5;exitDx=0;exitDy=0;entryX=0;entryY=0.5;entryDx=0;entryDy=0;" edge="1" source="rISgOMHyKzgCzV1_aeJC-100" target="rISgOMHyKzgCzV1_aeJC-103" parent="1">
          <mxGeometry width="50" height="50" relative="1" as="geometry">
            <mxPoint x="374" y="580" as="sourcePoint" />
            <mxPoint x="424" y="530" as="targetPoint" />
          </mxGeometry>
        </mxCell>
        <mxCell id="rISgOMHyKzgCzV1_aeJC-103" value="FAZ" style="rhombus;whiteSpace=wrap;html=1;" vertex="1" parent="1">
          <mxGeometry x="398" y="440" width="80" height="80" as="geometry" />
        </mxCell>
        <mxCell id="rISgOMHyKzgCzV1_aeJC-104" value="N" style="text;html=1;align=center;verticalAlign=middle;resizable=0;points=[];autosize=1;strokeColor=none;fillColor=none;" vertex="1" parent="1">
          <mxGeometry x="524" y="460" width="20" height="20" as="geometry" />
        </mxCell>
        <mxCell id="rISgOMHyKzgCzV1_aeJC-105" value="" style="endArrow=none;html=1;rounded=0;entryX=0;entryY=0.5;entryDx=0;entryDy=0;" edge="1" parent="1">
          <mxGeometry width="50" height="50" relative="1" as="geometry">
            <mxPoint x="478" y="480" as="sourcePoint" />
            <mxPoint x="544" y="480" as="targetPoint" />
          </mxGeometry>
        </mxCell>
        <mxCell id="rISgOMHyKzgCzV1_aeJC-106" value="TRANSAÇÃO" style="rounded=0;whiteSpace=wrap;html=1;" vertex="1" parent="1">
          <mxGeometry x="544" y="450" width="120" height="60" as="geometry" />
        </mxCell>
        <mxCell id="rISgOMHyKzgCzV1_aeJC-107" value="" style="endArrow=none;html=1;rounded=0;entryX=0;entryY=0.5;entryDx=0;entryDy=0;" edge="1" parent="1">
          <mxGeometry width="50" height="50" relative="1" as="geometry">
            <mxPoint x="664" y="480" as="sourcePoint" />
            <mxPoint x="714" y="385" as="targetPoint" />
          </mxGeometry>
        </mxCell>
        <mxCell id="rISgOMHyKzgCzV1_aeJC-108" value="ID" style="ellipse;whiteSpace=wrap;html=1;" vertex="1" parent="1">
          <mxGeometry x="44" y="270" width="70" height="50" as="geometry" />
        </mxCell>
        <mxCell id="rISgOMHyKzgCzV1_aeJC-109" value="" style="endArrow=none;html=1;rounded=0;entryX=0;entryY=0.5;entryDx=0;entryDy=0;exitX=1;exitY=0.5;exitDx=0;exitDy=0;" edge="1" source="rISgOMHyKzgCzV1_aeJC-108" parent="1">
          <mxGeometry width="50" height="50" relative="1" as="geometry">
            <mxPoint x="174" y="400" as="sourcePoint" />
            <mxPoint x="224" y="480" as="targetPoint" />
          </mxGeometry>
        </mxCell>
        <mxCell id="rISgOMHyKzgCzV1_aeJC-110" value="E-MAIL" style="ellipse;whiteSpace=wrap;html=1;" vertex="1" parent="1">
          <mxGeometry x="44" y="460" width="70" height="50" as="geometry" />
        </mxCell>
        <mxCell id="rISgOMHyKzgCzV1_aeJC-111" value="NOME" style="ellipse;whiteSpace=wrap;html=1;" vertex="1" parent="1">
          <mxGeometry x="44" y="360" width="70" height="50" as="geometry" />
        </mxCell>
        <mxCell id="rISgOMHyKzgCzV1_aeJC-112" value="" style="endArrow=none;html=1;rounded=0;exitX=1;exitY=0.5;exitDx=0;exitDy=0;" edge="1" source="rISgOMHyKzgCzV1_aeJC-111" parent="1">
          <mxGeometry width="50" height="50" relative="1" as="geometry">
            <mxPoint x="124" y="450" as="sourcePoint" />
            <mxPoint x="224" y="480" as="targetPoint" />
          </mxGeometry>
        </mxCell>
        <mxCell id="rISgOMHyKzgCzV1_aeJC-113" value="" style="endArrow=none;html=1;rounded=0;exitX=1;exitY=0.5;exitDx=0;exitDy=0;" edge="1" parent="1">
          <mxGeometry width="50" height="50" relative="1" as="geometry">
            <mxPoint x="114" y="485" as="sourcePoint" />
            <mxPoint x="224" y="480" as="targetPoint" />
          </mxGeometry>
        </mxCell>
        <mxCell id="rISgOMHyKzgCzV1_aeJC-114" value="" style="endArrow=none;html=1;rounded=0;exitX=1;exitY=0.5;exitDx=0;exitDy=0;" edge="1" source="rISgOMHyKzgCzV1_aeJC-116" parent="1">
          <mxGeometry width="50" height="50" relative="1" as="geometry">
            <mxPoint x="174" y="530" as="sourcePoint" />
            <mxPoint x="224" y="480" as="targetPoint" />
          </mxGeometry>
        </mxCell>
        <mxCell id="rISgOMHyKzgCzV1_aeJC-115" value="" style="endArrow=none;html=1;rounded=0;exitX=1;exitY=0.5;exitDx=0;exitDy=0;" edge="1" source="rISgOMHyKzgCzV1_aeJC-117" parent="1">
          <mxGeometry width="50" height="50" relative="1" as="geometry">
            <mxPoint x="174" y="530" as="sourcePoint" />
            <mxPoint x="224" y="480" as="targetPoint" />
          </mxGeometry>
        </mxCell>
        <mxCell id="rISgOMHyKzgCzV1_aeJC-116" value="DATA CADASTRO" style="ellipse;whiteSpace=wrap;html=1;" vertex="1" parent="1">
          <mxGeometry x="44" y="570" width="80" height="50" as="geometry" />
        </mxCell>
        <mxCell id="rISgOMHyKzgCzV1_aeJC-117" value="TELEFONE" style="ellipse;whiteSpace=wrap;html=1;" vertex="1" parent="1">
          <mxGeometry x="44" y="690" width="70" height="50" as="geometry" />
        </mxCell>
        <mxCell id="rISgOMHyKzgCzV1_aeJC-118" value="CLIENTE" style="rounded=0;whiteSpace=wrap;html=1;" vertex="1" parent="1">
          <mxGeometry x="224" y="450" width="120" height="60" as="geometry" />
        </mxCell>
        <mxCell id="rISgOMHyKzgCzV1_aeJC-119" value="1" style="text;html=1;align=center;verticalAlign=middle;resizable=0;points=[];autosize=1;strokeColor=none;fillColor=none;" vertex="1" parent="1">
          <mxGeometry x="344" y="460" width="20" height="20" as="geometry" />
        </mxCell>
        <mxCell id="rISgOMHyKzgCzV1_aeJC-120" value="" style="endArrow=none;html=1;rounded=0;exitX=1;exitY=0.5;exitDx=0;exitDy=0;entryX=0;entryY=0.5;entryDx=0;entryDy=0;" edge="1" source="rISgOMHyKzgCzV1_aeJC-118" target="rISgOMHyKzgCzV1_aeJC-121" parent="1">
          <mxGeometry width="50" height="50" relative="1" as="geometry">
            <mxPoint x="374" y="580" as="sourcePoint" />
            <mxPoint x="424" y="530" as="targetPoint" />
          </mxGeometry>
        </mxCell>
        <mxCell id="rISgOMHyKzgCzV1_aeJC-121" value="FAZ" style="rhombus;whiteSpace=wrap;html=1;" vertex="1" parent="1">
          <mxGeometry x="398" y="440" width="80" height="80" as="geometry" />
        </mxCell>
        <mxCell id="rISgOMHyKzgCzV1_aeJC-122" value="N" style="text;html=1;align=center;verticalAlign=middle;resizable=0;points=[];autosize=1;strokeColor=none;fillColor=none;" vertex="1" parent="1">
          <mxGeometry x="524" y="460" width="20" height="20" as="geometry" />
        </mxCell>
        <mxCell id="rISgOMHyKzgCzV1_aeJC-123" value="" style="endArrow=none;html=1;rounded=0;entryX=0;entryY=0.5;entryDx=0;entryDy=0;" edge="1" parent="1">
          <mxGeometry width="50" height="50" relative="1" as="geometry">
            <mxPoint x="478" y="480" as="sourcePoint" />
            <mxPoint x="544" y="480" as="targetPoint" />
          </mxGeometry>
        </mxCell>
        <mxCell id="rISgOMHyKzgCzV1_aeJC-124" value="TRANSAÇÃO" style="rounded=0;whiteSpace=wrap;html=1;" vertex="1" parent="1">
          <mxGeometry x="544" y="450" width="120" height="60" as="geometry" />
        </mxCell>
        <mxCell id="rISgOMHyKzgCzV1_aeJC-125" value="" style="endArrow=none;html=1;rounded=0;entryX=0;entryY=0.5;entryDx=0;entryDy=0;" edge="1" parent="1">
          <mxGeometry width="50" height="50" relative="1" as="geometry">
            <mxPoint x="664" y="480" as="sourcePoint" />
            <mxPoint x="714" y="385" as="targetPoint" />
          </mxGeometry>
        </mxCell>
      </root>
    </mxGraphModel>
  </diagram>
</mxfile>
